<?xml version="1.0" encoding="UTF-8" standalone="no"?>
<!-- Created with Inkscape (http://www.inkscape.org/) -->

<svg
   xmlns:dc="http://purl.org/dc/elements/1.1/"
   xmlns:cc="http://creativecommons.org/ns#"
   xmlns:rdf="http://www.w3.org/1999/02/22-rdf-syntax-ns#"
   xmlns:svg="http://www.w3.org/2000/svg"
   xmlns="http://www.w3.org/2000/svg"
   xmlns:sodipodi="http://sodipodi.sourceforge.net/DTD/sodipodi-0.dtd"
   xmlns:inkscape="http://www.inkscape.org/namespaces/inkscape"
   width="86.653641"
   height="791.66663"
   viewBox="0 0 86.653641 791.66663"
   version="1.1"
   id="svg8"
   sodipodi:docname="codeaholic.svg"
   inkscape:version="0.92.1 r15371">
  <defs
     id="defs2" />
  <sodipodi:namedview
     id="base"
     pagecolor="#ffffff"
     bordercolor="#666666"
     borderopacity="1.0"
     inkscape:pageopacity="0.0"
     inkscape:pageshadow="2"
     inkscape:zoom="0.7"
     inkscape:cx="-227.07468"
     inkscape:cy="283.98522"
     inkscape:document-units="px"
     inkscape:current-layer="layer1"
     showgrid="false"
     units="px"
     fit-margin-top="0"
     fit-margin-left="0"
     fit-margin-right="0"
     fit-margin-bottom="0"
     inkscape:window-width="1920"
     inkscape:window-height="1018"
     inkscape:window-x="-8"
     inkscape:window-y="-8"
     inkscape:window-maximized="1" />
  <metadata
     id="metadata5">
    <rdf:RDF>
      <cc:Work
         rdf:about="">
        <dc:format>image/svg+xml</dc:format>
        <dc:type
           rdf:resource="http://purl.org/dc/dcmitype/StillImage" />
        <dc:title />
      </cc:Work>
    </rdf:RDF>
  </metadata>
  <g
     inkscape:label="Layer 1"
     inkscape:groupmode="layer"
     id="layer1">
    <path
       style="font-style:normal;font-variant:normal;font-weight:bold;font-stretch:normal;font-size:medium;line-height:1.25;font-family:monospace;-inkscape-font-specification:'monospace Bold';letter-spacing:0px;word-spacing:0px;writing-mode:vertical-lr;fill:#000000;fill-opacity:1;stroke:none"
       d="M 77.734371,56.770839 Q 79.42708,58.007818 80.273434,59.44011 81.119788,60.937505 81.119788,62.630214 81.119788,65.559901 79.101559,67.382818 77.08333,69.270834 72.265622,69.270834 H 60.937497 Q 56.119789,69.270834 54.036456,67.382818 52.018227,65.559901 52.018227,62.630214 52.018227,59.960943 53.515622,58.333339 55.013018,56.705735 59.11458,55.924485 61.848955,55.468756 63.346351,54.101568 66.276038,51.432297 68.033851,46.614589 69.791663,41.861985 69.791663,37.044277 69.791663,31.054694 67.187497,26.041673 64.58333,21.028653 58.723955,17.187507 52.864581,13.346361 44.791664,13.346361 H 36.13281 Q 26.497394,13.346361 20.052082,20.312507 13.60677,27.343757 13.60677,39.778652 13.60677,47.200527 15.624999,52.343756 16.796874,55.338547 20.247394,58.723964 22.330728,60.807297 22.916665,61.979172 23.567707,63.151047 23.567707,64.648443 23.567707,67.317713 21.549478,69.335944 19.531249,71.354174 16.796874,71.354174 14.062499,71.354174 10.937499,68.619794 6.3802069,64.648443 3.7760404,58.398443 0.26041556,50.000006 0.26041556,39.843756 0.26041556,27.994798 5.1432278,18.48959 9.0494777,10.807299 17.447915,5.403653 25.911457,7.9882813e-6 35.872394,7.9882813e-6 H 44.921873 Q 55.338539,7.9882813e-6 64.322914,4.817716 73.372392,9.700528 78.255205,18.294278 83.138017,26.888027 83.138017,36.523444 83.138017,42.317714 81.77083,47.330735 80.468746,52.40886 77.734371,56.770839 Z"
       id="path43" />
    <path
       style="font-style:normal;font-variant:normal;font-weight:bold;font-stretch:normal;font-size:medium;line-height:1.25;font-family:monospace;-inkscape-font-specification:'monospace Bold';letter-spacing:0px;word-spacing:0px;writing-mode:vertical-lr;fill:#000000;fill-opacity:1;stroke:none"
       d="M 30.664061,150.52084 Q 22.981769,150.52084 15.755207,146.22396 8.5937485,141.99219 4.2968737,133.52865 0.06510307,125.13022 0.06510307,115.95053 0.06510307,106.83595 4.2317695,98.502604 8.4635402,90.169274 15.690103,85.807294 22.916665,81.445314 30.794269,81.445314 38.802081,81.445314 46.484373,85.872394 54.231768,90.299484 58.658851,98.567714 63.085934,106.90105 63.085934,115.95053 63.085934,125.06511 58.528643,133.46355 54.036456,141.92709 46.354164,146.22396 38.736977,150.52084 30.664061,150.52084 Z"
       id="path5632" />
    <path
       style="font-style:normal;font-variant:normal;font-weight:bold;font-stretch:normal;font-size:medium;line-height:1.25;font-family:monospace;-inkscape-font-specification:'monospace Bold';letter-spacing:0px;word-spacing:0px;writing-mode:vertical-lr;fill:#000000;fill-opacity:1;stroke:none"
       d="M 86.653642,226.4974 H 15.559895 V 228.77604 Q 15.559895,233.52865 13.671874,235.61198 11.848957,237.69531 8.8541652,237.69531 5.9244778,237.69531 4.036457,235.61198 2.2135404,233.59375 2.2135404,228.77604 V 213.15104 H 5.4687486 Q 2.7994779,208.59375 1.4322905,203.58073 0.06510307,198.63281 0.06510307,193.29427 0.06510307,178.25521 8.7239569,169.07552 17.447915,159.89584 30.403644,159.89584 43.94531,159.89584 53.515622,169.53125 63.085934,179.16667 63.085934,193.03386 63.085934,198.24219 61.45833,203.25521 59.89583,208.26823 56.705726,213.15104 H 73.307288 V 210.8724 Q 73.307288,206.05469 75.130205,203.97136 77.018226,201.95313 79.947913,201.95313 82.942705,201.95313 84.765621,203.97136 86.653642,206.05469 86.653642,210.8724 Z"
       id="path5636" />
    <path
       style="font-style:normal;font-variant:normal;font-weight:bold;font-stretch:normal;font-size:medium;line-height:1.25;font-family:monospace;-inkscape-font-specification:'monospace Bold';letter-spacing:0px;word-spacing:0px;writing-mode:vertical-lr;fill:#000000;fill-opacity:1;stroke:none"
       d="M 24.999998,309.375 V 254.62239 Q 19.791665,256.70573 16.601561,261.97916 13.411457,267.31771 13.411457,276.36718 13.411457,283.78906 16.601561,296.09375 17.903645,301.17187 17.903645,303.125 17.903645,305.79427 16.015624,307.61718 14.127603,309.4401 11.26302,309.4401 8.6588527,309.4401 6.8359361,307.48698 4.427082,304.88281 2.2135404,294.79166 0.06510307,284.70052 0.06510307,275.39062 0.06510307,259.375 9.1145818,249.73958 18.164061,240.16927 31.380206,240.16927 45.442706,240.16927 54.231768,250.52083 63.085934,260.9375 63.085934,274.47916 63.085934,282.61718 60.221351,289.38802 57.356768,296.22395 54.036456,299.54427 49.218747,304.23177 42.122394,307.29166 37.174477,309.375 30.664061,309.375 Z"
       id="path5640" />
    <path
       style="font-style:normal;font-variant:normal;font-weight:bold;font-stretch:normal;font-size:medium;line-height:1.25;font-family:monospace;-inkscape-font-specification:'monospace Bold';letter-spacing:0px;word-spacing:0px;writing-mode:vertical-lr;fill:#000000;fill-opacity:1;stroke:none"
       d="M 2.2135404,367.90364 H 5.3385403 Q 2.6692696,362.89062 1.3671863,356.83593 -1.1006959e-6,350.78124 -1.1006959e-6,345.83333 -1.1006959e-6,335.09114 5.6640611,328.38541 11.393228,321.67968 18.294269,321.67968 26.692707,321.67968 33.854165,330.20833 41.080727,338.80208 41.080727,353.90624 41.080727,359.96093 39.778644,367.90364 H 42.968748 Q 45.963539,367.90364 47.85156,365.29947 49.739581,362.76041 49.739581,355.53385 49.739581,349.60937 47.395831,340.16926 46.549477,336.65364 46.549477,334.70051 46.549477,332.03124 48.437498,330.14322 50.390622,328.32031 53.385414,328.32031 55.078122,328.32031 56.315101,328.97135 57.55208,329.62239 58.268226,330.79426 59.049476,331.96614 60.091143,335.67708 61.45833,340.62499 62.23958,345.76822 63.085934,350.91145 63.085934,355.07812 63.085934,367.51301 57.682289,374.34895 52.343747,381.24999 43.033852,381.24999 H 15.559895 V 383.52864 Q 15.559895,388.34634 13.671874,390.36457 11.848957,392.44791 8.8541652,392.44791 5.9244778,392.44791 4.036457,390.36457 2.2135404,388.34634 2.2135404,383.52864 Z"
       id="path5644" />
    <path
       style="font-style:normal;font-variant:normal;font-weight:bold;font-stretch:normal;font-size:medium;line-height:1.25;font-family:monospace;-inkscape-font-specification:'monospace Bold';letter-spacing:0px;word-spacing:0px;writing-mode:vertical-lr;fill:#000000;fill-opacity:1;stroke:none"
       d="M 86.653642,422.13539 H 58.203122 Q 60.67708,426.30206 61.848955,430.53383 63.085934,434.8307 63.085934,439.19268 63.085934,446.09372 60.742185,451.49737 58.398435,456.90101 53.32031,460.41664 48.307289,463.99737 40.624998,463.99737 H 15.559895 Q 15.559895,469.07549 14.583332,470.63799 12.565103,473.76299 8.8541652,473.76299 5.9244778,473.76299 4.036457,471.74476 2.2135404,469.72653 2.2135404,464.90882 V 449.67445 Q 2.2135404,444.92185 4.036457,442.83851 5.9244778,440.82028 8.9192693,440.82028 12.565103,440.82028 14.583332,443.94528 15.624999,445.57289 15.559895,450.58591 H 39.71354 Q 44.856768,450.58591 46.940102,448.24216 49.739581,445.18226 49.739581,439.19268 49.739581,434.7656 47.981768,431.31508 46.28906,427.92966 40.559894,422.13539 H 15.559895 Q 15.559895,427.27862 14.583332,428.77601 12.565103,431.96612 8.8541652,431.96612 5.9244778,431.96612 4.036457,429.88278 2.2135404,427.86456 2.2135404,423.04685 V 407.87758 Q 2.2135404,403.05987 4.036457,400.97654 5.9244778,398.95831 8.9192693,398.95831 12.565103,398.95831 14.583332,402.14841 15.624999,403.71091 15.559895,408.78904 H 73.307288 V 406.51039 Q 73.307288,401.69268 75.130205,399.60935 77.018226,397.59112 80.013017,397.59112 82.942705,397.59112 84.765621,399.60935 86.653642,401.69268 86.653642,406.51039 Z"
       id="path53" />
    <path
       style="font-style:normal;font-variant:normal;font-weight:bold;font-stretch:normal;font-size:medium;line-height:1.25;font-family:monospace;-inkscape-font-specification:'monospace Bold';letter-spacing:0px;word-spacing:0px;writing-mode:vertical-lr;fill:#000000;fill-opacity:1;stroke:none"
       d="M 30.664061,550.58592 Q 22.981769,550.58592 15.755207,546.28904 8.5937485,542.05727 4.2968737,533.59373 0.06510307,525.19529 0.06510307,516.01561 0.06510307,506.90102 4.2317695,498.56769 8.4635402,490.23436 15.690103,485.87238 22.916665,481.5104 30.794269,481.5104 38.802081,481.5104 46.484373,485.93748 54.231768,490.36457 58.658851,498.63279 63.085934,506.96613 63.085934,516.01561 63.085934,525.13019 58.528643,533.52863 54.036456,541.99217 46.354164,546.28904 38.736977,550.58592 30.664061,550.58592 Z"
       id="path5650" />
    <path
       style="font-style:normal;font-variant:normal;font-weight:bold;font-stretch:normal;font-size:medium;line-height:1.25;font-family:monospace;-inkscape-font-specification:'monospace Bold';letter-spacing:0px;word-spacing:0px;writing-mode:vertical-lr;fill:#000000;fill-opacity:1;stroke:none"
       d="M 86.653642,602.60416 H 15.559895 V 618.61978 Q 15.559895,623.43749 13.671874,625.45572 11.848957,627.53905 8.8541652,627.53905 5.9244778,627.53905 4.036457,625.45572 2.2135404,623.43749 2.2135404,618.61978 V 573.24218 Q 2.2135404,568.42447 4.036457,566.34114 5.9244778,564.32291 8.9192693,564.32291 11.848957,564.32291 13.671874,566.34114 15.559895,568.42447 15.559895,573.24218 V 589.2578 H 73.307288 V 578.51562 Q 73.307288,573.76301 75.130205,571.67968 77.018226,569.59635 80.013017,569.59635 82.942705,569.59635 84.765621,571.61458 86.653642,573.69791 86.653642,578.51562 Z"
       id="path57" />
    <path
       style="font-style:normal;font-variant:normal;font-weight:bold;font-stretch:normal;font-size:medium;line-height:1.25;font-family:monospace;-inkscape-font-specification:'monospace Bold';letter-spacing:0px;word-spacing:0px;writing-mode:vertical-lr;fill:#000000;fill-opacity:1;stroke:none"
       d="M 86.653642,680.72914 H 72.526038 V 664.84372 H 86.653642 Z"
       id="path5656" />
    <path
       style="font-style:normal;font-variant:normal;font-weight:bold;font-stretch:normal;font-size:medium;line-height:1.25;font-family:monospace;-inkscape-font-specification:'monospace Bold';letter-spacing:0px;word-spacing:0px;writing-mode:vertical-lr;fill:#000000;fill-opacity:1;stroke:none"
       d="M 61.328122,682.55205 H 15.559895 V 698.56768 Q 15.559895,703.38539 13.671874,705.40362 11.848957,707.48695 8.8541652,707.48695 5.9244778,707.48695 4.036457,705.40362 2.2135404,703.38539 2.2135404,698.56768 V 653.19008 Q 2.2135404,648.37237 4.036457,646.28904 5.9244778,644.27081 8.9192693,644.27081 11.848957,644.27081 13.671874,646.28904 15.559895,648.37237 15.559895,653.19008 V 669.2057 H 47.981768 V 658.46351 Q 47.981768,653.71091 49.804685,651.62758 51.692706,649.54424 54.687497,649.54424 57.617185,649.54424 59.440101,651.56247 61.328122,653.64581 61.328122,658.46351 Z"
       id="path59" />
    <path
       style="font-style:normal;font-variant:normal;font-weight:bold;font-stretch:normal;font-size:medium;line-height:1.25;font-family:monospace;-inkscape-font-specification:'monospace Bold';letter-spacing:0px;word-spacing:0px;writing-mode:vertical-lr;fill:#000000;fill-opacity:1;stroke:none"
       d="M 58.919268,776.75776 Q 61.197914,779.16662 61.197914,781.70568 61.197914,784.57026 59.11458,786.39318 57.096351,788.2812 52.343747,788.2812 H 43.749998 Q 38.93229,788.2812 36.91406,786.39318 34.895831,784.57026 34.895831,781.57547 34.895831,778.8411 36.458331,776.95308 37.630206,775.58589 41.210935,774.80464 44.856768,774.02339 46.614581,771.0286 49.739581,765.75516 49.739581,757.55203 49.739581,748.11193 44.205727,742.38276 38.671873,736.7187 30.208332,736.7187 22.395832,736.7187 17.83854,742.18745 13.346353,747.6562 13.346353,760.35151 13.346353,768.68485 15.039061,773.95828 16.080728,777.08328 18.554686,779.88276 21.093749,782.68224 21.093749,784.96089 21.093749,787.69526 19.075519,789.64839 17.05729,791.66662 14.322915,791.66662 9.8958318,791.66662 5.9244778,785.61193 -1.1006959e-6,776.62755 -1.1006959e-6,759.30985 -1.1006959e-6,743.74995 6.4453111,735.0911 15.104165,723.37235 30.143227,723.37235 44.401039,723.37235 53.710935,732.87756 63.085934,742.38276 63.085934,757.68224 63.085934,763.2161 62.044268,767.9687 61.002601,772.7213 58.919268,776.75776 Z"
       id="path61" />
  </g>
</svg>
